<mxfile host="65bd71144e">
    <diagram id="s3GZIM_m3DghCp0s7iO8" name="第 1 页">
        <mxGraphModel dx="1222" dy="537" grid="1" gridSize="10" guides="1" tooltips="1" connect="1" arrows="1" fold="1" page="1" pageScale="1" pageWidth="827" pageHeight="1169" math="0" shadow="0">
            <root>
                <mxCell id="0"/>
                <mxCell id="1" parent="0"/>
                <mxCell id="2" value="" style="rounded=1;whiteSpace=wrap;html=1;glass=0;fillColor=#FFFFFF;gradientColor=none;strokeColor=#5C5C5C;arcSize=3;" vertex="1" parent="1">
                    <mxGeometry x="170" y="600" width="500" height="470" as="geometry"/>
                </mxCell>
                <mxCell id="3" value="" style="endArrow=none;dashed=1;html=1;dashPattern=1 3;strokeWidth=2;entryX=0;entryY=0.08;entryDx=0;entryDy=0;entryPerimeter=0;exitX=1;exitY=0.08;exitDx=0;exitDy=0;exitPerimeter=0;strokeColor=#0D0D0D;" edge="1" parent="1" source="2" target="2">
                    <mxGeometry width="50" height="50" relative="1" as="geometry">
                        <mxPoint x="400" y="800" as="sourcePoint"/>
                        <mxPoint x="400" y="790" as="targetPoint"/>
                    </mxGeometry>
                </mxCell>
                <mxCell id="4" value="&lt;font size=&quot;1&quot; color=&quot;#000000&quot;&gt;&lt;b style=&quot;font-size: 14px;&quot;&gt;基于知识图谱增强神经网络的图像识别系统的架构图&lt;/b&gt;&lt;/font&gt;" style="text;html=1;strokeColor=none;fillColor=none;align=center;verticalAlign=middle;whiteSpace=wrap;rounded=0;glass=0;" vertex="1" parent="1">
                    <mxGeometry x="250" y="610" width="355" height="30" as="geometry"/>
                </mxCell>
                <mxCell id="5" value="" style="endArrow=none;dashed=1;html=1;dashPattern=1 3;strokeWidth=2;entryX=0;entryY=0.08;entryDx=0;entryDy=0;entryPerimeter=0;exitX=1;exitY=0.08;exitDx=0;exitDy=0;exitPerimeter=0;strokeColor=#0D0D0D;" edge="1" parent="1">
                    <mxGeometry width="50" height="50" relative="1" as="geometry">
                        <mxPoint x="670" y="720" as="sourcePoint"/>
                        <mxPoint x="170" y="720" as="targetPoint"/>
                    </mxGeometry>
                </mxCell>
                <mxCell id="6" value="&lt;font size=&quot;1&quot; color=&quot;#000000&quot;&gt;&lt;b style=&quot;font-size: 14px;&quot;&gt;表现层&lt;/b&gt;&lt;/font&gt;" style="text;html=1;strokeColor=none;fillColor=none;align=center;verticalAlign=middle;whiteSpace=wrap;rounded=0;glass=0;" vertex="1" parent="1">
                    <mxGeometry x="170" y="660" width="80" height="30" as="geometry"/>
                </mxCell>
                <mxCell id="7" value="&lt;font size=&quot;1&quot; color=&quot;#000000&quot;&gt;&lt;b style=&quot;font-size: 14px;&quot;&gt;展示层&lt;/b&gt;&lt;/font&gt;" style="text;html=1;strokeColor=none;fillColor=none;align=center;verticalAlign=middle;whiteSpace=wrap;rounded=0;glass=0;" vertex="1" parent="1">
                    <mxGeometry x="170" y="750" width="80" height="30" as="geometry"/>
                </mxCell>
                <mxCell id="8" value="&lt;b style=&quot;color: rgb(0, 0, 0); font-size: 14px;&quot;&gt;服务层&lt;/b&gt;" style="text;html=1;strokeColor=none;fillColor=none;align=center;verticalAlign=middle;whiteSpace=wrap;rounded=0;glass=0;" vertex="1" parent="1">
                    <mxGeometry x="170" y="870" width="80" height="30" as="geometry"/>
                </mxCell>
                <mxCell id="9" value="&lt;b style=&quot;color: rgb(0, 0, 0); font-size: 14px;&quot;&gt;数据层&lt;/b&gt;" style="text;html=1;strokeColor=none;fillColor=none;align=center;verticalAlign=middle;whiteSpace=wrap;rounded=0;glass=0;" vertex="1" parent="1">
                    <mxGeometry x="174" y="1005.6300000000001" width="80" height="30" as="geometry"/>
                </mxCell>
                <mxCell id="10" value="" style="rounded=1;whiteSpace=wrap;html=1;glass=0;strokeColor=#2D7600;fontSize=14;fontColor=#ffffff;fillColor=#9EE396;" vertex="1" parent="1">
                    <mxGeometry x="270" y="645" width="380" height="65" as="geometry"/>
                </mxCell>
                <mxCell id="11" value="Vue" style="rounded=1;whiteSpace=wrap;html=1;glass=0;strokeColor=#5C5C5C;fontSize=12;fontColor=#000000;fillColor=#FCFCFC;gradientColor=none;" vertex="1" parent="1">
                    <mxGeometry x="290" y="657.5" width="80" height="40" as="geometry"/>
                </mxCell>
                <mxCell id="12" value="Element UI" style="rounded=1;whiteSpace=wrap;html=1;glass=0;strokeColor=#5C5C5C;fontSize=12;fontColor=#000000;fillColor=#FCFCFC;gradientColor=none;" vertex="1" parent="1">
                    <mxGeometry x="420" y="657.5" width="80" height="40" as="geometry"/>
                </mxCell>
                <mxCell id="13" value="Echarts" style="rounded=1;whiteSpace=wrap;html=1;glass=0;strokeColor=#5C5C5C;fontSize=12;fontColor=#000000;fillColor=#FCFCFC;gradientColor=none;" vertex="1" parent="1">
                    <mxGeometry x="540" y="657.5" width="80" height="40" as="geometry"/>
                </mxCell>
                <mxCell id="14" value="" style="endArrow=none;dashed=1;html=1;dashPattern=1 3;strokeWidth=2;entryX=0;entryY=0.08;entryDx=0;entryDy=0;entryPerimeter=0;exitX=1;exitY=0.08;exitDx=0;exitDy=0;exitPerimeter=0;strokeColor=#0D0D0D;" edge="1" parent="1">
                    <mxGeometry width="50" height="50" relative="1" as="geometry">
                        <mxPoint x="670" y="810" as="sourcePoint"/>
                        <mxPoint x="170" y="810" as="targetPoint"/>
                    </mxGeometry>
                </mxCell>
                <mxCell id="15" value="&lt;font color=&quot;#000000&quot;&gt;&amp;nbsp; &amp;nbsp;AXIOS&lt;/font&gt;" style="rounded=1;whiteSpace=wrap;html=1;glass=0;strokeColor=#030505;fontSize=14;fontColor=#ffffff;fillColor=#B5FAFF;align=left;" vertex="1" parent="1">
                    <mxGeometry x="270" y="730" width="380" height="65" as="geometry"/>
                </mxCell>
                <mxCell id="16" value="GET请求" style="rounded=1;whiteSpace=wrap;html=1;glass=0;strokeColor=#5C5C5C;fontSize=12;fontColor=#000000;fillColor=#FCFCFC;gradientColor=none;" vertex="1" parent="1">
                    <mxGeometry x="350" y="740" width="110" height="40" as="geometry"/>
                </mxCell>
                <mxCell id="17" value="POST请求" style="rounded=1;whiteSpace=wrap;html=1;glass=0;strokeColor=#5C5C5C;fontSize=12;fontColor=#000000;fillColor=#FCFCFC;gradientColor=none;" vertex="1" parent="1">
                    <mxGeometry x="510" y="740" width="110" height="40" as="geometry"/>
                </mxCell>
                <mxCell id="18" value="&lt;font color=&quot;#000000&quot;&gt;&amp;nbsp; 业务层&lt;/font&gt;" style="rounded=1;whiteSpace=wrap;html=1;glass=0;strokeColor=#030505;fontSize=14;fontColor=#ffffff;fillColor=#F7ABD4;align=left;" vertex="1" parent="1">
                    <mxGeometry x="270" y="817.5" width="380" height="52.5" as="geometry"/>
                </mxCell>
                <mxCell id="19" value="" style="endArrow=none;dashed=1;html=1;dashPattern=1 3;strokeWidth=2;entryX=0;entryY=0.08;entryDx=0;entryDy=0;entryPerimeter=0;exitX=1;exitY=0.08;exitDx=0;exitDy=0;exitPerimeter=0;strokeColor=#0D0D0D;" edge="1" parent="1">
                    <mxGeometry width="50" height="50" relative="1" as="geometry">
                        <mxPoint x="670" y="980" as="sourcePoint"/>
                        <mxPoint x="170" y="980" as="targetPoint"/>
                    </mxGeometry>
                </mxCell>
                <mxCell id="20" value="&lt;font color=&quot;#000000&quot;&gt;&amp;nbsp; 用户层&lt;/font&gt;" style="rounded=1;whiteSpace=wrap;html=1;glass=0;strokeColor=#030505;fontSize=14;fontColor=#ffffff;fillColor=#FFDD99;align=left;" vertex="1" parent="1">
                    <mxGeometry x="270" y="882.5" width="380" height="87.5" as="geometry"/>
                </mxCell>
                <mxCell id="21" value="API接口" style="rounded=1;whiteSpace=wrap;html=1;glass=0;strokeColor=#5C5C5C;fontSize=12;fontColor=#000000;fillColor=#FCFCFC;gradientColor=none;" vertex="1" parent="1">
                    <mxGeometry x="380" y="830" width="80" height="30" as="geometry"/>
                </mxCell>
                <mxCell id="22" value="模型加载" style="rounded=1;whiteSpace=wrap;html=1;glass=0;strokeColor=#5C5C5C;fontSize=12;fontColor=#000000;fillColor=#FCFCFC;gradientColor=none;" vertex="1" parent="1">
                    <mxGeometry x="520" y="828.75" width="80" height="30" as="geometry"/>
                </mxCell>
                <mxCell id="23" value="注册登录模块" style="rounded=1;whiteSpace=wrap;html=1;glass=0;strokeColor=#5C5C5C;fontSize=12;fontColor=#000000;fillColor=#FCFCFC;gradientColor=none;" vertex="1" parent="1">
                    <mxGeometry x="350" y="890" width="90" height="30" as="geometry"/>
                </mxCell>
                <mxCell id="24" value="图像上传模块" style="rounded=1;whiteSpace=wrap;html=1;glass=0;strokeColor=#5C5C5C;fontSize=12;fontColor=#000000;fillColor=#FCFCFC;gradientColor=none;" vertex="1" parent="1">
                    <mxGeometry x="450" y="890" width="90" height="30" as="geometry"/>
                </mxCell>
                <mxCell id="25" value="神经网络模块" style="rounded=1;whiteSpace=wrap;html=1;glass=0;strokeColor=#5C5C5C;fontSize=12;fontColor=#000000;fillColor=#FCFCFC;gradientColor=none;" vertex="1" parent="1">
                    <mxGeometry x="550" y="890" width="90" height="30" as="geometry"/>
                </mxCell>
                <mxCell id="26" value="知识图谱模块" style="rounded=1;whiteSpace=wrap;html=1;glass=0;strokeColor=#5C5C5C;fontSize=12;fontColor=#000000;fillColor=#FCFCFC;gradientColor=none;" vertex="1" parent="1">
                    <mxGeometry x="350" y="930" width="90" height="30" as="geometry"/>
                </mxCell>
                <mxCell id="27" value="知识图谱可视&lt;span style=&quot;color: rgba(0, 0, 0, 0); font-family: monospace; font-size: 0px; text-align: start;&quot;&gt;%3CmxGraphModel%3E%3Croot%3E%3CmxCell%20id%3D%220%22%2F%3E%3CmxCell%20id%3D%221%22%20parent%3D%220%22%2F%3E%3CmxCell%20id%3D%222%22%20value%3D%22%E7%9F%A5%E8%AF%86%E5%9B%BE%E8%B0%B1%E6%A8%A1%E5%9D%97%22%20style%3D%22rounded%3D1%3BwhiteSpace%3Dwrap%3Bhtml%3D1%3Bglass%3D0%3BstrokeColor%3D%235C5C5C%3BfontSize%3D12%3BfontColor%3D%23000000%3BfillColor%3D%23FCFCFC%3BgradientColor%3Dnone%3B%22%20vertex%3D%221%22%20parent%3D%221%22%3E%3CmxGeometry%20x%3D%22350%22%20y%3D%22930%22%20width%3D%2290%22%20height%3D%2230%22%20as%3D%22geometry%22%2F%3E%3C%2FmxCell%3E%3C%2Froot%3E%3C%2FmxGraphModel%3E&lt;/span&gt;&lt;br&gt;化模块" style="rounded=1;whiteSpace=wrap;html=1;glass=0;strokeColor=#5C5C5C;fontSize=12;fontColor=#000000;fillColor=#FCFCFC;gradientColor=none;" vertex="1" parent="1">
                    <mxGeometry x="450" y="930" width="90" height="30" as="geometry"/>
                </mxCell>
                <mxCell id="28" value="结果输出模块" style="rounded=1;whiteSpace=wrap;html=1;glass=0;strokeColor=#5C5C5C;fontSize=12;fontColor=#000000;fillColor=#FCFCFC;gradientColor=none;" vertex="1" parent="1">
                    <mxGeometry x="550" y="930" width="90" height="30" as="geometry"/>
                </mxCell>
                <mxCell id="29" value="" style="rounded=1;whiteSpace=wrap;html=1;glass=0;strokeColor=#030505;fontSize=14;fontColor=#ffffff;fillColor=#E391DB;align=left;" vertex="1" parent="1">
                    <mxGeometry x="274" y="990" width="380" height="51.25" as="geometry"/>
                </mxCell>
                <mxCell id="30" value="" style="html=1;verticalLabelPosition=bottom;align=center;labelBackgroundColor=#ffffff;verticalAlign=top;strokeWidth=2;strokeColor=#030505;shadow=0;dashed=0;shape=mxgraph.ios7.icons.data;fontFamily=Helvetica;fontSize=12;fontColor=#000000;fillColor=#FFDD99;gradientColor=none;" vertex="1" parent="1">
                    <mxGeometry x="339" y="1000.3100000000002" width="30" height="30.63" as="geometry"/>
                </mxCell>
                <mxCell id="31" value="" style="html=1;verticalLabelPosition=bottom;align=center;labelBackgroundColor=#ffffff;verticalAlign=top;strokeWidth=2;strokeColor=#030505;shadow=0;dashed=0;shape=mxgraph.ios7.icons.data;fontFamily=Helvetica;fontSize=12;fontColor=#000000;fillColor=#FFDD99;gradientColor=none;" vertex="1" parent="1">
                    <mxGeometry x="504" y="1000.3100000000002" width="30" height="30.63" as="geometry"/>
                </mxCell>
                <mxCell id="32" value="neo4j" style="rounded=1;whiteSpace=wrap;html=1;glass=0;strokeColor=#5C5C5C;fontSize=12;fontColor=#000000;fillColor=#FCFCFC;gradientColor=none;" vertex="1" parent="1">
                    <mxGeometry x="373" y="1000.94" width="61" height="30" as="geometry"/>
                </mxCell>
                <mxCell id="33" value="Mysql" style="rounded=1;whiteSpace=wrap;html=1;glass=0;strokeColor=#5C5C5C;fontSize=12;fontColor=#000000;fillColor=#FCFCFC;gradientColor=none;" vertex="1" parent="1">
                    <mxGeometry x="538.5" y="1000.94" width="61" height="30" as="geometry"/>
                </mxCell>
            </root>
        </mxGraphModel>
    </diagram>
</mxfile>